<svg id="Layer_1" data-name="Layer 1" xmlns="http://www.w3.org/2000/svg" viewBox="0 0 369.71 100.7"><defs><style>.cls-1,.cls-2,.cls-3{stroke:#000;stroke-miterlimit:10;}.cls-1{stroke-width:0.76px;}.cls-2{stroke-width:0.76px;}.cls-3{stroke-width:0.67px;}.cls-4{font-size:89.24px;font-family:Calibri;}.cls-5{letter-spacing:-0.08em;}.cls-6{letter-spacing:0em;}</style></defs><path class="cls-1" d="M279.35,253.51a34.07,34.07,0,0,1,6,4.06L278,268.15l-36.64-10.54a25.94,25.94,0,0,1,5.82-4.72C257.52,246.79,270.68,248.88,279.35,253.51Z" transform="translate(-235.92 -247.29)"/><path class="cls-2" d="M244.68,315.69a33.68,33.68,0,0,1-6-4.06l7.3-10.58,36.64,10.54a26.39,26.39,0,0,1-5.82,4.72C266.51,322.41,253.35,320.32,244.68,315.69Z" transform="translate(-235.92 -247.29)"/><path class="cls-3" d="M233.89,278.26h44.29a12.63,12.63,0,0,1,12.63,12.63v0a0,0,0,0,1,0,0H246.52a12.63,12.63,0,0,1-12.63-12.63v0A0,0,0,0,1,233.89,278.26Z" transform="translate(-146.67 -308.9) rotate(16.11)"/><text class="cls-4" transform="translate(74.2 72.81)">SOCIA<tspan class="cls-5" x="221.79" y="0">L</tspan><tspan class="cls-6" x="252.03" y="0">Y</tspan></text></svg>