<svg id="Layer_1" data-name="Layer 1" xmlns="http://www.w3.org/2000/svg" viewBox="0 0 52.18 70.97"><defs><style>.cls-1{fill:#fff;}</style></defs><path class="cls-1" d="M437.94,266.55a33.68,33.68,0,0,1,6,4.06l-7.3,10.58L400,270.65a25.94,25.94,0,0,1,5.82-4.72C416.11,259.83,429.27,261.91,437.94,266.55Z" transform="translate(-394.85 -262.15)"/><path class="cls-1" d="M403.28,328.73a33.12,33.12,0,0,1-6-4.07l7.3-10.57,36.63,10.53a26,26,0,0,1-5.82,4.73C425.11,335.44,412,333.36,403.28,328.73Z" transform="translate(-394.85 -262.15)"/><path class="cls-1" d="M392.48,291.3h44.29a12.63,12.63,0,0,1,12.63,12.63v0a0,0,0,0,1,0,0H405.11a12.63,12.63,0,0,1-12.63-12.63v0A0,0,0,0,1,392.48,291.3Z" transform="translate(-295.76 -367.26) rotate(16.11)"/></svg>