<svg id="Layer_1" data-name="Layer 1" xmlns="http://www.w3.org/2000/svg" viewBox="0 0 418.8035 98.6294"><defs><style>.cls-1,.cls-2,.cls-3{stroke:#000;stroke-miterlimit:10;}.cls-1{stroke-width:0.8696px;}.cls-2{stroke-width:0.8696px;}.cls-3{stroke-width:0.77px;}.cls-4{font-size:102.0765px;font-family:Microsoft-Yi-Baiti, Microsoft Yi Baiti;font-style:italic;}</style></defs><path class="cls-1" d="M242.0283,258.0265a38.7856,38.7856,0,0,1,6.839,4.648l-8.3517,12.1011L198.6109,262.72a29.7162,29.7162,0,0,1,6.6556-5.4C217.0559,250.3441,232.109,252.7277,242.0283,258.0265Z" transform="translate(-192.3528 -252.5642)"/><path class="cls-2" d="M202.3716,329.1522a38.7805,38.7805,0,0,1-6.839-4.6479l8.3517-12.1011,41.9047,12.0553a29.719,29.719,0,0,1-6.6556,5.4C227.344,336.8346,212.2909,334.451,202.3716,329.1522Z" transform="translate(-192.3528 -252.5642)"/><path class="cls-3" d="M190.0265,286.34h50.6662a14.4462,14.4462,0,0,1,14.4462,14.4462v0a0,0,0,0,1,0,0H204.4727A14.4462,14.4462,0,0,1,190.0265,286.34v0A0,0,0,0,1,190.0265,286.34Z" transform="translate(-102.1669 -302.7939) rotate(16.1078)"/><text class="cls-4" transform="translate(82.8684 81.6333)">SOCIALY</text></svg>